<svg id="Layer_5" enable-background="new 0 0 64 64" height="512" viewBox="0 0 64 64" width="512" xmlns="http://www.w3.org/2000/svg"><g fill="#f0bc5e"><path d="m10.796 22.004c-.717 0-1.402-.535-1.98-.986-.238-.184-.617-.48-.816-.573-.199.092-.578.388-.815.573-.761.593-1.71 1.333-2.668.806-1.025-.565-.805-1.828-.644-2.75.042-.238.106-.605.113-.819-.198-.101-.565-.23-.803-.314-.972-.343-2.183-.77-2.183-1.941s1.211-1.598 2.184-1.941c.237-.083.604-.213.803-.314-.007-.214-.071-.581-.113-.819-.16-.922-.381-2.186.644-2.75.959-.529 1.907.212 2.668.805.236.185.615.481.814.574.199-.092.578-.388.815-.573.761-.594 1.707-1.334 2.668-.806 1.025.565.805 1.828.644 2.75-.042.238-.106.605-.113.819.198.101.565.23.803.314.972.343 2.183.77 2.183 1.941s-1.211 1.598-2.184 1.941c-.237.083-.604.213-.803.314.007.214.071.581.113.819.16.922.381 2.186-.644 2.75-.229.127-.46.18-.686.18z"/><path d="m24.765 13.004c-.719 0-1.408-.533-1.99-.982-.243-.188-.634-.489-.834-.578-.2.089-.591.391-.834.578-.766.591-1.719 1.329-2.676.804-1.034-.564-.811-1.831-.647-2.755.041-.236.105-.6.114-.813-.202-.102-.574-.231-.815-.315-.981-.343-2.202-.77-2.202-1.943s1.221-1.6 2.201-1.942c.241-.084.613-.214.815-.316-.008-.214-.072-.578-.114-.814-.163-.924-.387-2.189.646-2.754.963-.521 1.912.214 2.678.805.242.187.633.489.833.578.2-.089.591-.391.834-.578.766-.591 1.72-1.326 2.676-.804 1.034.564.811 1.83.648 2.754-.042.236-.106.601-.114.814.201.102.573.231.814.315.981.342 2.202.769 2.202 1.942s-1.221 1.6-2.201 1.942c-.241.084-.613.214-.814.315.008.214.072.578.114.814.162.924.386 2.189-.647 2.754-.231.126-.461.179-.687.179z"/><path d="m54.113 23.335-3.113-2.335-3.113 2.335 1.079 1.874-1.046 8.369 3.08 1.54 3.08-1.54-1.046-8.369z"/></g><path d="m35 41.586-3.086-3.086 1.448-1.448-11.539-13.461 1.591-1.591-4.414-4.414-12.414 12.414 4.414 4.414 1.591-1.591 5.629 4.825 1.301-1.519-5.512-4.724 6.397-6.397 10.232 11.939-4.69 4.69-1.891-1.621-1.301 1.519 3.296 2.826 1.448-1.448 3.086 3.087-1 1 4.414 4.414 6.414-6.414-4.414-4.414zm-25.586-11.586 9.586-9.586 1.586 1.586-9.586 9.586zm19.5 11.5 1.586-1.586 3.086 3.086-1.586 1.586zm5.086 7.086-1.586-1.586 3.586-3.586 1.586 1.586z"/><path d="m30 57h-2.28l-5.13-15.389-1.165.389h-.849l-1.166-.389-5.13 15.389h-2.28c-2.757 0-5 2.243-5 5v1h28v-1c0-2.757-2.243-5-5-5zm-4.387 0h-3.613v-10.839zm-5.613-10.839v10.839h-3.613zm-10.829 14.839c.413-1.164 1.525-2 2.829-2h18c1.304 0 2.416.836 2.829 2z"/><path d="m59.084 18.328-4.914-1.092c2.322-1.182 3.83-3.586 3.83-6.236v-2.749c0-3.884-3.044-7.136-6.785-7.248-1.931-.071-3.72.643-5.09 1.973s-2.125 3.114-2.125 5.024v3c0 2.65 1.508 5.054 3.83 6.235l-4.914 1.092c-2.306.513-3.916 2.52-3.916 4.881v15.792c0 1.654 1.346 3 3 3h1v21h16v-21h1c1.654 0 3-1.346 3-3v-15.792c0-2.361-1.61-4.368-3.916-4.88zm-3.987 1.162-.701 2.806-2.039-1.529 1.095-1.643zm-9.097-8.49v-3c0-1.364.539-2.639 1.519-3.588.979-.95 2.276-1.451 3.636-1.409 2.671.08 4.845 2.435 4.845 5.248v2.749c0 2.11-1.34 4.002-3.334 4.708l-.666.237v1.753l-1 1.5-1-1.5v-1.753l-.666-.236c-1.994-.707-3.334-2.599-3.334-4.709zm2.548 8.125 1.095 1.643-2.039 1.529-.701-2.806zm-5.198 1.155 1.601-.356 1.445 5.78 4.604-3.454 4.604 3.454 1.445-5.78 1.601.356c1.384.308 2.35 1.512 2.35 2.929v9.791h-2v-8h-2v10h-12v-10h-2v8h-2v-9.792c0-1.416.966-2.621 2.35-2.928zm-1.35 19.72c-.552 0-1-.449-1-1v-4h2v5zm15 21h-5v-20h-2v20h-5v-19-5h12v5zm3-21h-1v-5h2v4c0 .551-.448 1-1 1z"/><path d="m5 1h2v2h-2z"/><path d="m5 5h2v2h-2z"/><path d="m7 3h2v2h-2z"/><path d="m3 3h2v2h-2z"/><path d="m34 7h2v2h-2z"/><path d="m34 11h2v2h-2z"/><path d="m36 9h2v2h-2z"/><path d="m32 9h2v2h-2z"/><path d="m3 33h2v2h-2z"/><path d="m3 37h2v2h-2z"/><path d="m5 35h2v2h-2z"/><path d="m1 35h2v2h-2z"/><path d="m21 43c-2.206 0-4-1.794-4-4s1.794-4 4-4 4 1.794 4 4-1.794 4-4 4z" fill="#f0bc5e"/></svg>